<svg width="123" height="52" viewBox="0 0 123 52" fill="none" xmlns="http://www.w3.org/2000/svg">
<path d="M54.8977 35.1422C53.4375 35.1422 52.1291 34.8009 50.9724 34.1182C49.8156 33.4166 48.8959 32.4684 48.2132 31.2738C47.5495 30.0791 47.2177 28.7327 47.2177 27.2347C47.2177 25.7176 47.559 24.3618 48.2417 23.1671C48.9433 21.9724 49.8915 21.0338 51.0861 20.3511C52.2808 19.6495 53.6272 19.2987 55.1252 19.2987C56.6233 19.2987 57.9602 19.6495 59.1359 20.3511C60.3306 21.0338 61.2692 21.9724 61.9519 23.1671C62.6535 24.3618 63.0138 25.7176 63.0328 27.2347V33.9191C63.0328 34.2415 62.9285 34.507 62.7199 34.7156C62.5113 34.9052 62.2458 35 61.9235 35C61.6011 35 61.3356 34.9052 61.127 34.7156C60.9184 34.507 60.8141 34.2415 60.8141 33.9191V32.184C60.1694 33.0942 59.335 33.8148 58.311 34.3458C57.287 34.8767 56.1492 35.1422 54.8977 35.1422ZM55.1252 33.1511C56.2251 33.1511 57.2017 32.8951 58.055 32.3831C58.9273 31.8711 59.61 31.1695 60.103 30.2782C60.615 29.368 60.871 28.3535 60.871 27.2347C60.871 26.0969 60.615 25.0824 60.103 24.1911C59.61 23.2999 58.9273 22.5982 58.055 22.0862C57.2017 21.5553 56.2251 21.2898 55.1252 21.2898C54.0444 21.2898 53.0678 21.5553 52.1955 22.0862C51.3232 22.5982 50.631 23.2999 50.119 24.1911C49.607 25.0824 49.351 26.0969 49.351 27.2347C49.351 28.3535 49.607 29.368 50.119 30.2782C50.631 31.1695 51.3232 31.8711 52.1955 32.3831C53.0678 32.8951 54.0444 33.1511 55.1252 33.1511ZM67.9468 35C67.2262 35 66.8659 34.6397 66.8659 33.9191V20.5218C66.8659 19.8012 67.2262 19.4409 67.9468 19.4409C68.6674 19.4409 69.0277 19.8012 69.0277 20.5218V21.7449C69.5966 20.9864 70.2982 20.389 71.1326 19.9529C71.967 19.4978 72.8867 19.2702 73.8917 19.2702C74.764 19.2702 75.4372 19.3935 75.9113 19.64C76.3853 19.8865 76.5655 20.2468 76.4517 20.7209C76.3569 21.157 76.1293 21.3846 75.769 21.4036C75.4277 21.4036 75.02 21.3846 74.5459 21.3467C73.484 21.2519 72.5358 21.3656 71.7015 21.688C70.8861 21.9914 70.2318 22.4655 69.7388 23.1102C69.2647 23.755 69.0277 24.523 69.0277 25.4142V33.9191C69.0277 34.6397 68.6674 35 67.9468 35ZM85.5541 35C84.5491 35 83.6484 34.763 82.8519 34.2889C82.0744 33.8148 81.4581 33.1701 81.003 32.3547C80.5479 31.5203 80.3204 30.5721 80.3204 29.5102V21.9156H78.4715C78.187 21.9156 77.95 21.8302 77.7604 21.6596C77.5707 21.4699 77.4759 21.2424 77.4759 20.9769C77.4759 20.6924 77.5707 20.4649 77.7604 20.2942C77.95 20.1046 78.187 20.0098 78.4715 20.0098H80.3204V15.6009C80.3204 15.2785 80.4152 15.013 80.6048 14.8044C80.8134 14.5958 81.0789 14.4916 81.4013 14.4916C81.7236 14.4916 81.9891 14.5958 82.1977 14.8044C82.4063 15.013 82.5106 15.2785 82.5106 15.6009V20.0098H85.7248C86.0093 20.0098 86.2463 20.1046 86.4359 20.2942C86.6255 20.4649 86.7204 20.6924 86.7204 20.9769C86.7204 21.2424 86.6255 21.4699 86.4359 21.6596C86.2463 21.8302 86.0093 21.9156 85.7248 21.9156H82.5106V29.5102C82.5106 30.4773 82.795 31.2738 83.3639 31.8996C83.9328 32.5064 84.6629 32.8098 85.5541 32.8098H86.3221C86.6255 32.8098 86.8721 32.9141 87.0617 33.1227C87.2513 33.3313 87.3461 33.5967 87.3461 33.9191C87.3461 34.2415 87.2324 34.507 87.0048 34.7156C86.7773 34.9052 86.4928 35 86.1515 35H85.5541ZM95.9177 35.1422C94.7989 35.1422 93.6895 34.9526 92.5897 34.5733C91.4898 34.1941 90.5986 33.6252 89.9159 32.8667C89.7073 32.6391 89.622 32.3831 89.6599 32.0987C89.6978 31.8142 89.8401 31.5677 90.0866 31.3591C90.3521 31.1695 90.627 31.0936 90.9115 31.1316C91.1959 31.1695 91.433 31.2927 91.6226 31.5013C92.0777 32.0323 92.675 32.44 93.4146 32.7244C94.1731 33.0089 95.0075 33.1511 95.9177 33.1511C97.321 33.1511 98.3355 32.9141 98.9613 32.44C99.587 31.947 99.9094 31.3591 99.9284 30.6764C99.9284 29.9938 99.606 29.4344 98.9613 28.9982C98.3165 28.5431 97.2546 28.1923 95.7755 27.9458C93.8602 27.6424 92.457 27.1114 91.5657 26.3529C90.6744 25.5944 90.2288 24.6936 90.2288 23.6507C90.2288 22.6836 90.4848 21.8776 90.9968 21.2329C91.5088 20.5881 92.1915 20.1046 93.0448 19.7822C93.8981 19.4598 94.8368 19.2987 95.8608 19.2987C97.1313 19.2987 98.2217 19.5167 99.1319 19.9529C100.061 20.389 100.81 20.9769 101.379 21.7164C101.569 21.963 101.645 22.219 101.607 22.4844C101.569 22.7499 101.417 22.968 101.151 23.1387C100.924 23.2714 100.658 23.3188 100.355 23.2809C100.071 23.224 99.8241 23.0818 99.6155 22.8542C98.6863 21.7923 97.4158 21.2613 95.8039 21.2613C94.761 21.2613 93.9266 21.4794 93.3008 21.9156C92.675 22.3327 92.3621 22.8637 92.3621 23.5084C92.3621 24.1532 92.6371 24.6841 93.187 25.1013C93.7559 25.5185 94.8178 25.8599 96.3728 26.1253C97.795 26.3529 98.9138 26.6942 99.7293 27.1493C100.564 27.5855 101.151 28.107 101.493 28.7138C101.853 29.3016 102.033 29.9464 102.033 30.648C102.033 31.5393 101.768 32.3262 101.237 33.0089C100.725 33.6726 100.004 34.1941 99.075 34.5733C98.1648 34.9526 97.1124 35.1422 95.9177 35.1422Z" fill="black"/>
<path fill-rule="evenodd" clip-rule="evenodd" d="M15.8464 12.963H8.58307e-06L6.67216 19.6351H22.5185L15.8464 12.963ZM6.67215 19.6351V35.4815L0 28.8093V12.963L6.67215 19.6351Z" fill="#CCCCCC"/>
<path fill-rule="evenodd" clip-rule="evenodd" d="M6.67218 35.4815H22.5185L15.8464 28.8093L2.28882e-05 28.8093L6.67218 35.4815ZM15.8464 28.8093L15.8464 12.963L22.5186 19.6351L22.5186 35.4815L15.8464 28.8093Z" fill="black"/>
</svg>
